<svg xmlns="http://www.w3.org/2000/svg" width="251.6" height="49.2" viewBox="0 0 251.6 49.2"><defs><style>.a{fill:#fff;}</style></defs><g transform="translate(-0.1 -5.1)"><path class="a" d="M.1,5.1H10.8V20c3.8-4.1,8.9-4.1,10.4-4.1,7.5,0,17.7,5.4,17.7,19,0,12.9-9,19.4-18.1,19.4-5.1,0-8.9-2.5-10.4-5.1V53H.1ZM28.2,35a8.934,8.934,0,0,0-8.8-9.1A8.822,8.822,0,0,0,10.5,35c0,5,3.4,9.3,8.7,9.3a9.022,9.022,0,0,0,9-9.3Z"/><path class="a" d="M44.9,17.1H55v4c1-1.9,2.9-5.2,9.1-5.2V26.7h-.4c-5.5,0-8.1,2-8.1,7.1V53.1H44.9Z"/><path class="a" d="M105.3,53.1H94.5V49.2c-1.9,3.5-6.4,5.1-10.6,5.1-11.4,0-18.1-8.9-18.1-19.2,0-11.8,8.5-19.2,18.1-19.2,5.9,0,9.2,2.8,10.6,5V17.1h10.7v36ZM76.6,35.3c0,3.3,2.5,9,8.9,9a8.239,8.239,0,0,0,7.5-4,9.641,9.641,0,0,0,.6-9.3,8.5,8.5,0,0,0-8.2-5c-6.1-.1-8.8,5.1-8.8,9.3Z"/><path class="a" d="M113.1,17.1h10v3.8c1.2-1.7,3.5-5,9.9-5,12.1,0,13.3,9.8,13.3,14.7V53.1H135.6V33.4c0-3.9-.8-7.4-5.6-7.4-5.3,0-6.2,3.8-6.2,7.5V53.1H113.1v-36Z"/><path class="a" d="M190.3,39.4a19.262,19.262,0,0,1-38-4.4,19.224,19.224,0,0,1,38-4H179.4a8.012,8.012,0,0,0-7.8-5,7.668,7.668,0,0,0-6.2,2.5,9.816,9.816,0,0,0-2.3,6.6c0,5.2,3.4,9.1,8.5,9.1a8.316,8.316,0,0,0,7.8-4.8h10.9Z"/><path class="a" d="M194.6,35c0-8.7,6.3-19,19.4-19s19.4,10.3,19.4,19.1S227.1,54.2,214,54.2,194.6,43.9,194.6,35Zm10.7.1a8.7,8.7,0,0,0,8.6,9c4.7,0,8.6-3.8,8.6-9.1a8.783,8.783,0,0,0-8.6-9.1,8.872,8.872,0,0,0-8.6,9.2Z"/><circle class="a" cx="6.4" cy="6.4" r="6.4" transform="translate(238.9 40.3)"/></g></svg>