<svg xmlns="http://www.w3.org/2000/svg" width="46.664" height="46.664" viewBox="0 0 46.664 46.664"><defs><style>.a{fill:#fff;}</style></defs><g transform="translate(23.332 23.332) rotate(180)"><path class="a" d="M23.332,46.664a23.332,23.332,0,0,1-16.5-39.83,23.332,23.332,0,0,1,33,33A23.179,23.179,0,0,1,23.332,46.664Zm0-43.018A19.686,19.686,0,1,0,43.018,23.332,19.709,19.709,0,0,0,23.332,3.646Zm9.5,19.686-12.6-12.6-2.578,2.578L27.68,23.332,17.655,33.357l2.578,2.578Zm0,0" transform="translate(-23.332 -23.332)"/></g></svg>