<svg xmlns="http://www.w3.org/2000/svg" xmlns:xlink="http://www.w3.org/1999/xlink" width="47" height="47" viewBox="0 0 47 47"><defs><style>.a,.c{fill:#fff;}.a{stroke:#707070;}.b{clip-path:url(#a);}</style><clipPath id="a"><rect class="a" width="47" height="47" transform="translate(280.832 3506.832)"/></clipPath></defs><g class="b" transform="translate(-280.832 -3506.832)"><g transform="translate(304.332 3530.332) rotate(180)"><path class="c" d="M23.332,46.664a23.332,23.332,0,0,1-16.5-39.83,23.332,23.332,0,0,1,33,33A23.179,23.179,0,0,1,23.332,46.664Zm0-43.018A19.686,19.686,0,1,0,43.018,23.332,19.709,19.709,0,0,0,23.332,3.646Zm9.5,19.686-12.6-12.6-2.578,2.578L27.68,23.332,17.655,33.357l2.578,2.578Zm0,0" transform="translate(-23.332 -23.332)"/></g></g></svg>