<svg xmlns="http://www.w3.org/2000/svg" xmlns:xlink="http://www.w3.org/1999/xlink" width="38.473" height="41.02" viewBox="0 0 38.473 41.02"><defs><style>.a{fill:#fff;}.b{clip-path:url(#a);}</style><clipPath id="a"><path d="M19.674,47.471V38.855A14.187,14.187,0,0,0,33.283,28.1c.086.021.171.064.236.086.021,0,.021.021.043.021a10.416,10.416,0,0,1,2.079,1.179,9.931,9.931,0,0,1,4.115,7.737A10.079,10.079,0,0,1,29.7,47.471H19.674M9.494,14.681h0l9.816-.021a10.254,10.254,0,0,1,10.18,8.615h-20ZM5.422,10.566h0L5.4,23.3v4.072a.021.021,0,0,0,.021.021H29.254a10.1,10.1,0,0,1-9.687,7.394H15.6a.021.021,0,0,0-.021.021V51.564a.021.021,0,0,0,.021.021H29.726A14.092,14.092,0,0,0,36.112,24.9h-.021a5.131,5.131,0,0,0-.6-.279c-.021,0-.021,0-.043-.021l-.579-.257c-.021,0-.043-.021-.064-.021-.193-.064-.386-.15-.557-.214-.043-.021-.064-.021-.107-.043-.15-.043-.3-.107-.471-.15a14.359,14.359,0,0,0-14.4-13.352H5.422Z" transform="translate(-5.401 -10.566)"/></clipPath></defs><g transform="translate(-5.401 -10.566)"><path class="a" d="M19.674,47.471V38.855A14.187,14.187,0,0,0,33.283,28.1c.086.021.171.064.236.086.021,0,.021.021.043.021a10.416,10.416,0,0,1,2.079,1.179,9.931,9.931,0,0,1,4.115,7.737A10.079,10.079,0,0,1,29.7,47.471H19.674M9.494,14.681h0l9.816-.021a10.254,10.254,0,0,1,10.18,8.615h-20ZM5.422,10.566h0L5.4,23.3v4.072a.021.021,0,0,0,.021.021H29.254a10.1,10.1,0,0,1-9.687,7.394H15.6a.021.021,0,0,0-.021.021V51.564a.021.021,0,0,0,.021.021H29.726A14.092,14.092,0,0,0,36.112,24.9h-.021a5.131,5.131,0,0,0-.6-.279c-.021,0-.021,0-.043-.021l-.579-.257c-.021,0-.043-.021-.064-.021-.193-.064-.386-.15-.557-.214-.043-.021-.064-.021-.107-.043-.15-.043-.3-.107-.471-.15a14.359,14.359,0,0,0-14.4-13.352H5.422Z"/><g class="b" transform="translate(5.401 10.566)"><rect class="a" width="38.641" height="41.02"/></g></g></svg>