<svg xmlns="http://www.w3.org/2000/svg" xmlns:xlink="http://www.w3.org/1999/xlink" width="25" height="25" viewBox="0 0 25 25"><defs><style>.a,.c{fill:#fff;}.a{stroke:#707070;}.b{clip-path:url(#a);}</style><clipPath id="a"><rect class="a" width="25" height="25" transform="translate(1131 5687)"/></clipPath></defs><g class="b" transform="translate(-1131 -5687)"><g transform="translate(1143.5 5699.5)"><g transform="translate(-12.5 -12.5)"><path class="c" d="M57.124,112.842c-4.16-1.923-9.984-1.072-10.229-1.035a1,1,0,0,0,.3,1.985c.054-.008,5.468-.8,9.088.873a1,1,0,1,0,.842-1.822Z" transform="translate(-39.88 -96.658)"/><path class="c" d="M56.8,84.739c-4.725-2.183-11.351-1.216-11.63-1.174a1,1,0,0,0,.3,1.985c.063-.01,6.316-.917,10.489,1.011a1,1,0,1,0,.842-1.822Z" transform="translate(-38.382 -72.168)"/><path class="c" d="M54.72,55.562c-5.219-2.412-12.549-1.342-12.859-1.3a1,1,0,0,0,.3,1.985c.07-.011,7.05-1.025,11.717,1.132a1,1,0,1,0,.842-1.822Z" transform="translate(-35.521 -46.767)"/><path class="c" d="M12.5,0A12.5,12.5,0,1,0,25,12.5,12.514,12.514,0,0,0,12.5,0Zm0,22.993A10.493,10.493,0,1,1,22.993,12.5,10.5,10.5,0,0,1,12.5,22.994Z" transform="translate(0 -0.001)"/></g></g></g></svg>