<svg xmlns="http://www.w3.org/2000/svg" xmlns:xlink="http://www.w3.org/1999/xlink" width="25" height="25" viewBox="0 0 25 25"><defs><style>.a,.c{fill:#fff;}.a{stroke:#707070;}.b{clip-path:url(#a);}</style><clipPath id="a"><rect class="a" width="25" height="25" transform="translate(1211 5687)"/></clipPath></defs><g class="b" transform="translate(-1211 -5687)"><g transform="translate(1223.5 5699.5)"><path class="c" d="M12.5,18.066h-.007c-.754-.005-7.423-.066-9.313-.577A3.864,3.864,0,0,1,.461,14.772,28.356,28.356,0,0,1,0,9.057,28.89,28.89,0,0,1,.46,3.3l0-.005A3.945,3.945,0,0,1,3.177.559l.01,0C5.055.065,11.736.005,12.492,0h.014c.756.005,7.443.066,9.315.578a3.863,3.863,0,0,1,2.715,2.713A27.51,27.51,0,0,1,25,9.079a28.434,28.434,0,0,1-.458,5.707v.005a3.865,3.865,0,0,1-2.72,2.717l-.005,0c-1.868.491-8.55.551-9.306.556H12.5ZM2.347,3.8a27.938,27.938,0,0,0-.393,5.245V9.07a26.252,26.252,0,0,0,.393,5.2A1.9,1.9,0,0,0,3.688,15.6a65.372,65.372,0,0,0,8.811.51,68.02,68.02,0,0,0,8.814-.491,1.906,1.906,0,0,0,1.338-1.336,26.342,26.342,0,0,0,.393-5.2c0-.01,0-.021,0-.031a25.425,25.425,0,0,0-.391-5.252v0A1.906,1.906,0,0,0,21.31,2.463c-1.381-.377-6.821-.5-8.811-.51a68.113,68.113,0,0,0-8.811.491A1.959,1.959,0,0,0,2.347,3.8ZM23.594,14.537h0ZM10.01,12.988V5.078l6.836,3.955Zm0,0" transform="translate(-12.5 -9.033)"/></g></g></svg>