<svg xmlns="http://www.w3.org/2000/svg" xmlns:xlink="http://www.w3.org/1999/xlink" width="25" height="25" viewBox="0 0 25 25"><defs><style>.a,.c{fill:#fff;}.a{stroke:#707070;}.b{clip-path:url(#a);}</style><clipPath id="a"><rect class="a" width="25" height="25" transform="translate(1055 5687)"/></clipPath></defs><g class="b" transform="translate(-1055 -5687)"><g transform="translate(1067.5 5699.5)"><g transform="translate(-12.5 -12.5)"><path class="c" d="M24.64,24.684h.006V15.515c0-4.485-.966-7.941-6.209-7.941a5.444,5.444,0,0,0-4.9,2.695h-.073V7.993H8.489V24.683h5.177V16.419c0-2.176.413-4.28,3.107-4.28,2.655,0,2.695,2.483,2.695,4.42v8.126Z" transform="translate(0.354 0.316)"/><path class="c" d="M.4,7.977H5.579V24.668H.4Z" transform="translate(0.016 0.332)"/><path class="c" d="M3,0A3.016,3.016,0,1,0,6,3,3,3,0,0,0,3,0Z"/></g></g></g></svg>