<svg xmlns="http://www.w3.org/2000/svg" xmlns:xlink="http://www.w3.org/1999/xlink" width="25" height="25" viewBox="0 0 25 25"><defs><style>.a,.c{fill:#fff;}.a{stroke:#707070;}.b{clip-path:url(#a);}</style><clipPath id="a"><rect class="a" width="25" height="25" transform="translate(1171 5687)"/></clipPath></defs><g class="b" transform="translate(-1171 -5687)"><g transform="translate(1183.5 5699.5)"><g transform="translate(-12.5 -6.975)"><rect class="c" width="4.558" height="1.381" transform="translate(0 12.569)"/><rect class="c" width="4.558" height="1.382" transform="translate(0 10.774)"/><rect class="c" width="4.558" height="1.382" transform="translate(0 8.978)"/><rect class="c" width="4.558" height="1.381" transform="translate(0 7.183)"/><rect class="c" width="4.558" height="1.381" transform="translate(0 5.387)"/><rect class="c" width="4.558" height="1.381" transform="translate(5.11 12.569)"/><rect class="c" width="4.558" height="1.382" transform="translate(5.11 10.774)"/><rect class="c" width="4.558" height="1.382" transform="translate(5.11 8.978)"/><rect class="c" width="4.558" height="1.381" transform="translate(10.221 12.569)"/><rect class="c" width="4.558" height="1.382" transform="translate(10.221 10.774)"/><rect class="c" width="4.558" height="1.382" transform="translate(10.221 8.978)"/><rect class="c" width="4.558" height="1.381" transform="translate(10.221 7.183)"/><rect class="c" width="4.558" height="1.381" transform="translate(10.221 5.387)"/><rect class="c" width="4.558" height="1.381" transform="translate(10.221 3.592)"/><rect class="c" width="4.558" height="1.381" transform="translate(10.221 1.796)"/><rect class="c" width="4.558" height="1.381" transform="translate(15.331 12.569)"/><rect class="c" width="4.558" height="1.382" transform="translate(15.331 10.774)"/><rect class="c" width="4.558" height="1.382" transform="translate(15.331 8.978)"/><rect class="c" width="4.558" height="1.381" transform="translate(15.331 7.183)"/><rect class="c" width="4.558" height="1.381" transform="translate(15.331 5.387)"/><rect class="c" width="4.558" height="1.381" transform="translate(20.442 12.569)"/><rect class="c" width="4.558" height="1.382" transform="translate(20.442 10.774)"/><rect class="c" width="4.558" height="1.381" transform="translate(20.442 8.978)"/><rect class="c" width="4.558" height="1.381" transform="translate(20.442 7.183)"/><rect class="c" width="4.558" height="1.381" transform="translate(20.442 5.387)"/><rect class="c" width="4.558" height="1.381" transform="translate(20.442 3.592)"/><rect class="c" width="4.558" height="1.381" transform="translate(20.442 1.796)"/><rect class="c" width="4.558" height="1.381" transform="translate(20.442)"/></g></g></g></svg>