<svg xmlns="http://www.w3.org/2000/svg" width="136.574" height="33.934" viewBox="0 0 136.574 33.934"><defs><style>.a{opacity:0.56;}.b,.c{fill:#fff;}.c{fill-rule:evenodd;}</style></defs><g class="a" transform="translate(-6.125 -2.988)"><g transform="translate(44.721 2.988)"><path class="b" d="M184.313,51.857a2.25,2.25,0,0,0,.125.689,1.123,1.123,0,0,0,.313.438,1.258,1.258,0,0,0,.5.25,1.852,1.852,0,0,0,.626.125c.25,0,.438.063.689.063h3.067a2.662,2.662,0,0,0,.689-.125,2.223,2.223,0,0,0,.563-.25.777.777,0,0,0,.376-.5,2.335,2.335,0,0,0,.125-.751v-.376a1.325,1.325,0,0,0-.25-.876,1.6,1.6,0,0,0-.751-.5,3.9,3.9,0,0,0-1.314-.188h-2.5a3.307,3.307,0,0,1-.814-.063c-.188-.063-.376-.063-.5-.188a.625.625,0,0,1-.25-.313,1.065,1.065,0,0,1-.063-.438,1.852,1.852,0,0,1,.125-.626.641.641,0,0,1,.376-.313,1.932,1.932,0,0,1,.689-.125,5.307,5.307,0,0,1,1,0h1.815c.25,0,.5.063.626.063.188.063.313.063.376.125a.864.864,0,0,1,.25.188c.063.063.063.188.125.313v.438h.814v-.188a1.93,1.93,0,0,0-.063-.626,1.009,1.009,0,0,0-.25-.438.988.988,0,0,0-.5-.313,6.5,6.5,0,0,0-.751-.188,5.727,5.727,0,0,0-1.064-.063h-1.815a6.086,6.086,0,0,0-1.127.063,3.1,3.1,0,0,0-.814.25,1.9,1.9,0,0,0-.5.5,1.818,1.818,0,0,0-.188.876,2.778,2.778,0,0,0,.125.814.777.777,0,0,0,.376.5,1.958,1.958,0,0,0,.626.313,3.789,3.789,0,0,0,.939.125,9.166,9.166,0,0,0,1.314,0h1.627a1.744,1.744,0,0,1,.626.063.9.9,0,0,1,.438.125.625.625,0,0,1,.25.313,1.22,1.22,0,0,1,.063.5,1.389,1.389,0,0,1-.063.563,1.309,1.309,0,0,1-.25.376,4.312,4.312,0,0,1-.5.188,2.579,2.579,0,0,1-.751.063h-2.629a2.347,2.347,0,0,1-.689-.063c-.188-.063-.313-.063-.438-.188a.625.625,0,0,1-.25-.313.794.794,0,0,1-.063-.376v-.438H184v.5Z" transform="translate(-111.257 -19.488)"/><path class="b" d="M164.5,53.359h6.134v-.689h-5.321V50.48h5.07v-.689h-5.07v-2h5.258V47.1H164.5Z" transform="translate(-103.963 -19.488)"/><path class="b" d="M148.036,51.419a2.25,2.25,0,0,1-.125.689.641.641,0,0,1-.313.376.676.676,0,0,1-.438.188,1.733,1.733,0,0,1-.563.063h-3.443a1.733,1.733,0,0,1-.563-.063,3.052,3.052,0,0,1-.438-.188,1.66,1.66,0,0,1-.313-.376,1.932,1.932,0,0,1-.125-.689V49.1a2.25,2.25,0,0,1,.125-.689.641.641,0,0,1,.313-.376.676.676,0,0,1,.438-.188,1.733,1.733,0,0,1,.563-.063H146.6a1.733,1.733,0,0,1,.563.063,3.052,3.052,0,0,1,.438.188,1.659,1.659,0,0,1,.313.376,1.932,1.932,0,0,1,.125.689Zm-7.136-.313a4.356,4.356,0,0,0,.125,1,1.428,1.428,0,0,0,.376.751,1.864,1.864,0,0,0,.689.438,2.764,2.764,0,0,0,1.064.125h3.568a4.964,4.964,0,0,0,1.064-.125,1.865,1.865,0,0,0,.689-.438,1.428,1.428,0,0,0,.376-.751,4.864,4.864,0,0,0,.125-1v-1.69a4.356,4.356,0,0,0-.125-1,1.428,1.428,0,0,0-.376-.751,1.865,1.865,0,0,0-.689-.438,2.764,2.764,0,0,0-1.064-.125h-3.568a4.964,4.964,0,0,0-1.064.125,1.864,1.864,0,0,0-.689.438,1.428,1.428,0,0,0-.376.751,4.865,4.865,0,0,0-.125,1Z" transform="translate(-95.135 -19.488)"/><path class="b" d="M96.113,51.857a2.25,2.25,0,0,0,.125.689,1.123,1.123,0,0,0,.313.438,1.258,1.258,0,0,0,.5.25,1.852,1.852,0,0,0,.626.125c.25,0,.438.063.689.063h3.067a2.662,2.662,0,0,0,.689-.125,2.224,2.224,0,0,0,.563-.25.777.777,0,0,0,.376-.5,2.335,2.335,0,0,0,.125-.751v-.376a1.324,1.324,0,0,0-.25-.876,1.6,1.6,0,0,0-.751-.5,3.9,3.9,0,0,0-1.314-.188h-2.5a3.307,3.307,0,0,1-.814-.063c-.188-.063-.376-.063-.5-.188a.625.625,0,0,1-.25-.313,1.065,1.065,0,0,1-.063-.438,1.852,1.852,0,0,1,.125-.626.641.641,0,0,1,.376-.313,1.932,1.932,0,0,1,.689-.125,5.307,5.307,0,0,1,1,0h1.815c.25,0,.5.063.626.063.188.063.313.063.376.125a.864.864,0,0,1,.25.188c.063.063.063.188.125.313v.438h.814v-.188a1.93,1.93,0,0,0-.063-.626,1.009,1.009,0,0,0-.25-.438.988.988,0,0,0-.5-.313,6.5,6.5,0,0,0-.751-.188,5.727,5.727,0,0,0-1.064-.063H98.492a6.086,6.086,0,0,0-1.127.063,3.1,3.1,0,0,0-.814.25,1.905,1.905,0,0,0-.5.5,1.818,1.818,0,0,0-.188.876,2.778,2.778,0,0,0,.125.814.777.777,0,0,0,.376.5,1.958,1.958,0,0,0,.626.313,3.789,3.789,0,0,0,.939.125,9.166,9.166,0,0,0,1.314,0h1.627a1.744,1.744,0,0,1,.626.063.9.9,0,0,1,.438.125.625.625,0,0,1,.25.313,1.22,1.22,0,0,1,.063.5,1.389,1.389,0,0,1-.063.563,1.309,1.309,0,0,1-.25.376,4.313,4.313,0,0,1-.5.188,2.579,2.579,0,0,1-.751.063H98.053a2.347,2.347,0,0,1-.689-.063c-.188-.063-.313-.063-.438-.188a.625.625,0,0,1-.25-.313.794.794,0,0,1-.063-.376v-.438H95.8v.5Z" transform="translate(-78.265 -19.488)"/><path class="b" d="M118.4,53.359h.876V50.48h5.633v2.879h.814V47.1h-.814v2.692h-5.633V47.1H118.4Z" transform="translate(-86.718 -19.488)"/><path class="c" d="M134.708,6.5h-7.136a1.753,1.753,0,1,1,0-3.505h17.714a1.753,1.753,0,1,1,0,3.505h-7.136V22.4a1.753,1.753,0,0,1-3.505,0V6.5ZM123.253,22.4a1.753,1.753,0,0,1-3.505,0V10.069A1.75,1.75,0,0,1,121.5,8.316a1.791,1.791,0,0,1,1.753,1.753Zm-14.084.438L96.588,9.192v13.27a1.753,1.753,0,0,1-3.505,0V5.061a1.855,1.855,0,0,1,.939-1.878,1.714,1.714,0,0,1,2.066.376L109.42,18.018V4.748a1.753,1.753,0,0,1,3.505,0V22.462A1.694,1.694,0,0,1,111.8,24.09C110.609,24.528,109.983,23.526,109.169,22.838ZM154.613,8.379l-7.887,14.835a1.757,1.757,0,0,1-2.316.751,1.7,1.7,0,0,1-.751-2.316l9.389-17.714a1.757,1.757,0,0,1,2.316-.751,2.158,2.158,0,0,1,.751.751l9.452,17.714a1.722,1.722,0,1,1-3.067,1.565Zm-75.676,0-7.887,14.9a1.757,1.757,0,0,1-2.316.751,1.7,1.7,0,0,1-.751-2.316L77.434,3.934a1.757,1.757,0,0,1,2.316-.751,2.158,2.158,0,0,1,.751.751l9.452,17.714a1.722,1.722,0,1,1-3.067,1.565Zm42.564-1a2.218,2.218,0,0,1-2.191-2.191,2.191,2.191,0,0,1,4.382,0A2.177,2.177,0,0,1,121.5,7.377Z" transform="translate(-67.786 -2.988)"/></g><path class="c" d="M14.309,26.323l2.128-4.945L11.68,16.933l-.063,8.075Zm-.25.626L11.68,25.822l-.125,6.635-.188.939.25-.939Zm.626.313L12.244,32.77l-.438.814.563-.751,4.757-4.444ZM15,26.636l2.692,1.252L20.569,25.2l-3.505-3.255ZM17.814,28.7,13.182,33.02l-.876.626.876-.563,7.073-3.255Zm-6.823,4.444-.125-.689V25.509l-3.693-1.69,3.568,8.638Zm16.9-6.823-2.128-4.945,4.757-4.444.063,8.075Zm.313.626,2.379-1.127.125,6.635.188.939-.313-.939Zm-.689.313,2.441,5.508.438.814-.563-.751-4.757-4.444Zm-.313-.626-2.692,1.252L21.7,25.2,25.2,21.941ZM24.387,28.7l4.695,4.319.876.563-.876-.563-7.073-3.255Zm6.823,4.444.125-.689V25.509l3.693-1.69L31.46,32.457ZM21.132,25.7h0L18.44,28.2l2.692,1.252L23.824,28.2l-2.692-2.5Zm0-13.082L17.376,21.19,21.132,24.7h0l3.756-3.505ZM10.929,24.7l.063-8.575a.377.377,0,0,1,.626-.25l5.2,4.82,4.006-9.139a.416.416,0,0,1,.313-.25.319.319,0,0,1,.313.25l4.006,9.076,5.2-4.82a.381.381,0,0,1,.5,0,.475.475,0,0,1,.125.25l.063,8.575,4.256-1.94a.419.419,0,0,1,.5.188.284.284,0,0,1,0,.313L31.46,34.522a.394.394,0,0,1-.5.188H30.9L21.132,30.2,11.367,34.71H11.3a.419.419,0,0,1-.5-.188L6.172,23.255a.284.284,0,0,1,0-.313.394.394,0,0,1,.5-.188Z" transform="translate(0 -3.109)"/></g></svg>