<svg xmlns="http://www.w3.org/2000/svg" width="136.442" height="49.2" viewBox="0 0 136.442 49.2"><defs><style>.a{opacity:0.56;}.b{fill:#fff;}</style></defs><g class="a" transform="translate(-54.991 -201.074)"><g transform="translate(54.991 201.074)"><path class="b" d="M78.136,201.074a23.155,23.155,0,0,1,21.407,31.959l-.02.048-.04.1-.02.048-.02.048-.021.047-.02.047-.02.047-.021.048,0,.012-.016.036-.02.048-.022.047-.042.094-.021.047-.021.047-.012.026-.01.021-.021.047-.022.047-.022.047,0,.009-.018.038-.022.047-.022.047,0,.006-.019.04-.022.046-.023.047-.022.046-.011.023-.011.023-.023.047-.022.047-.023.046,0,.006-.02.04-.046.093-.019.037-.005.01-.07.138-.011.02-.013.026-.072.137,0,0-.022.042-.024.045-.025.045-.017.034-.007.011-.049.091-.025.045-.01.019-.015.027-.025.045-.025.045-.025.044v0l-.01.017-.04.071-.025.044-.018.031-.007.013-.026.044-.026.044-.025.045-.009.015-.017.03h0l-.079.134-2.232-.491-.008.012.008-.013-14.779-3.253c-6.923-1.524-6.631-4.609-5.684-8.82q1.944-7.249,3.893-14.492l8.64.165-2.7,10.08c-.615,2.393-.759,4.1-.419,5.112,1.078,3.193,6.436,5.943,12.7,8.072a21.055,21.055,0,1,0-3.033,5.058l-21.378-.1c-4.346-.02-8.828-1.563-10.15-5.457a2.847,2.847,0,0,1-.079-.288,11.523,11.523,0,0,1,.5-4.836l3.641-13.672h8.634l-2.7,10.138c-.615,2.407-.762,4.113-.419,5.124.656,1.936,3.459,4.031,7.485,4.752l15.6,2.8.024-.035-.023.035h0l2.3.412q-.277.454-.576.892h0a23.146,23.146,0,1,1-19.176-36.11Z" transform="translate(-54.991 -201.074)"/><path class="b" d="M233.474,213.67h13.191l-1.939,3.022h-8.4l-1.1,4.889h7.822l-1.486,2.954h-7l-.935,4.167-1.258.62h13.4l-1.555,3.021h-14.94l4.2-18.673Zm62.055,21.516,3.847-1.639-4.293,19.08h-3.494l3.94-17.44Zm-31.695,19.845a3.633,3.633,0,0,1,.939-1.754,9.508,9.508,0,0,1,2.044-1.546,1.344,1.344,0,0,1-.566-.809,2.429,2.429,0,0,1,0-1.16,1.774,1.774,0,0,1,.315-.6,8.635,8.635,0,0,1,.541-.7c.219-.266.48-.543.769-.832a3.215,3.215,0,0,1-.7-.566,2.6,2.6,0,0,1-.523-.8,3.241,3.241,0,0,1-.249-1.138,5.872,5.872,0,0,1,.164-1.556,5.7,5.7,0,0,1,.959-2.184,5.464,5.464,0,0,1,1.636-1.465,7.3,7.3,0,0,1,2.144-.826,11.954,11.954,0,0,1,2.5-.255,9.986,9.986,0,0,1,1.068.056c.362.039.687.079.977.125.339.056.664.118.989.181l4.671-.079-1.263,2.5H278.73a2.34,2.34,0,0,1,.285.753,3.052,3.052,0,0,1-.081,1.188,6.864,6.864,0,0,1-.923,2.308,4.681,4.681,0,0,1-1.509,1.443,6.5,6.5,0,0,1-2.127.747,16.022,16.022,0,0,1-2.749.215c-.077,0-.173,0-.288-.006s-.239-.017-.371-.029-.251-.022-.363-.04-.21-.033-.285-.04c-.107.165-.206.323-.292.476-.082.135-.15.271-.22.407a1.593,1.593,0,0,0-.133.339,1.052,1.052,0,0,0-.015.492c.03.124.154.226.36.305a3.436,3.436,0,0,0,.937.158c.417.029.983.04,1.694.04a19.313,19.313,0,0,1,3.028.2,4.414,4.414,0,0,1,1.823.662,1.882,1.882,0,0,1,.769,1.245,5.146,5.146,0,0,1-.13,1.941,4.965,4.965,0,0,1-1.028,2.15,5.931,5.931,0,0,1-1.81,1.449,8.746,8.746,0,0,1-2.432.826,15.662,15.662,0,0,1-2.873.255,22.188,22.188,0,0,1-3.007-.175,5.51,5.51,0,0,1-2.071-.64,2.291,2.291,0,0,1-1.075-1.251,3.594,3.594,0,0,1-.009-2.012Zm5.024-2.133a5.44,5.44,0,0,0-1.014.838,2.14,2.14,0,0,0-.48.967,1.172,1.172,0,0,0,.033.735,1.036,1.036,0,0,0,.513.509,3.377,3.377,0,0,0,1.062.289,12.686,12.686,0,0,0,1.675.091,7.573,7.573,0,0,0,2.731-.391,1.807,1.807,0,0,0,1.189-1.33,1.763,1.763,0,0,0,.035-.809.736.736,0,0,0-.416-.458,2.836,2.836,0,0,0-.927-.2c-.4-.034-.889-.056-1.489-.068-.236,0-.523-.006-.852-.022s-.653-.028-.963-.045c-.358-.029-.722-.062-1.1-.1Zm6.617-9.325a2.9,2.9,0,0,0,.078-1,1.014,1.014,0,0,0-.342-.64,1.623,1.623,0,0,0-.781-.34,6.414,6.414,0,0,0-1.251-.1,3.877,3.877,0,0,0-2.1.464,2.462,2.462,0,0,0-.978,1.618,1.793,1.793,0,0,0,.2,1.612,2.507,2.507,0,0,0,1.894.515,4.329,4.329,0,0,0,2.239-.475,2.443,2.443,0,0,0,1.043-1.652Zm14.277,9.332,1.027-4.547L291.9,243.4a5.673,5.673,0,0,0,.136-2.116,2.468,2.468,0,0,0-.688-1.41,3.221,3.221,0,0,0-1.455-.786,8.393,8.393,0,0,0-2.171-.249c-.57,0-1.223.028-1.947.091q-.625.053-1.212.113l.241,2.81.18-.009c.686-.034,1.311-.051,1.886-.051a1.764,1.764,0,0,1,1.3.418,1.233,1.233,0,0,1,.232,1.216l-.179.8-3.86.282a14.269,14.269,0,0,0-2.274.322,5.812,5.812,0,0,0-1.768.718,4.3,4.3,0,0,0-1.256,1.228,5.452,5.452,0,0,0-.737,1.822,3.738,3.738,0,0,0,.406,3.174,3.575,3.575,0,0,0,3.056,1.155,11.61,11.61,0,0,0,1.8-.142c.616-.091,1.178-.2,1.685-.322a16.428,16.428,0,0,0,1.722-.481,4.725,4.725,0,0,0,.593.407,3.739,3.739,0,0,0,.746.3,6.09,6.09,0,0,0,1.034.181c.122.013.25.022.387.03Zm-5.5-6.1,3.417-.17-.7,3.118c-.453.1-.907.187-1.359.266-.393.068-.829.13-1.3.181a11.112,11.112,0,0,1-1.312.084q-1.564,0-1.172-1.76a1.921,1.921,0,0,1,.8-1.233,3.424,3.424,0,0,1,1.628-.486Zm-23.262,5.873-.224-2.606-.462.016c-.663.018-1.293.029-1.9.029a3.175,3.175,0,0,1-2.462-.719,2.506,2.506,0,0,1-.292-2.2h9.377l.723-2.218q.706-3.141-.57-4.634t-4.559-1.5a8.018,8.018,0,0,0-5.3,1.754,9.559,9.559,0,0,0-2.942,5.454,11.693,11.693,0,0,0-.334,3.078c.007.152.019.3.038.442h-8.774l1.106-.541,2.984-13.263-3.164-1.814-4.2,18.672h10.61l1.532-2.542a3.579,3.579,0,0,0,.513,1.19,3.372,3.372,0,0,0,1.71,1.251,8.484,8.484,0,0,0,2.852.408c.679,0,1.389-.029,2.133-.09.567-.048,1.1-.1,1.607-.165Zm1.351-7.893H256.2a4.305,4.305,0,0,1,1.277-2.433,3.828,3.828,0,0,1,2.532-.758,4.384,4.384,0,0,1,1.349.175,1.611,1.611,0,0,1,.831.549,1.781,1.781,0,0,1,.322.985,5.771,5.771,0,0,1-.167,1.482Zm46.312-12.391q-.756.094-1.606.165c-.744.062-1.454.09-2.133.09a8.512,8.512,0,0,1-2.853-.407,3.2,3.2,0,0,1-2.081-1.978l-.345,2.041c-.414.073-.819.141-1.2.2-.339.056-.694.1-1.053.13s-.678.051-.939.051a7.713,7.713,0,0,1-2.159-.249,2.126,2.126,0,0,1-1.22-.838,2.822,2.822,0,0,1-.4-1.567,11.438,11.438,0,0,1,.325-2.439q1.42-6.315,2.842-12.63h3.5l-.879,3.9h4.109l-1.711,2.784h-3.025l-1.239,5.506c-.106.469-.188.865-.242,1.188a1.771,1.771,0,0,0,.012.8.692.692,0,0,0,.374.447,2.047,2.047,0,0,0,.87.142c.211,0,.463-.006.752-.011s.56-.011.812-.023c.216,0,.436-.011.659-.021a5.277,5.277,0,0,1-.1-.828,11.766,11.766,0,0,1,.334-3.078,9.567,9.567,0,0,1,2.942-5.455,8.02,8.02,0,0,1,5.3-1.754q3.283,0,4.559,1.5t.57,4.634l-.723,2.218h-9.377a2.505,2.505,0,0,0,.292,2.2,3.177,3.177,0,0,0,2.462.719c.6,0,1.232-.011,1.9-.028l.462-.016.222,2.607Zm1.352-7.893a5.823,5.823,0,0,0,.168-1.483,1.785,1.785,0,0,0-.323-.984,1.611,1.611,0,0,0-.83-.549,4.395,4.395,0,0,0-1.35-.176,3.825,3.825,0,0,0-2.532.758,4.3,4.3,0,0,0-1.277,2.433Zm-23.993-5.63-3.031,13.473h3.495l2.047-9.093c.416-.17.876-.339,1.389-.515.43-.147.951-.3,1.558-.464s1.267-.312,1.978-.43l.738-3.282a12.732,12.732,0,0,0-1.922.464q-.911.3-1.589.577a13.785,13.785,0,0,0-1.492.713l.325-1.443Zm-2.192,6.666a14.143,14.143,0,0,1-.991,2.954,7.278,7.278,0,0,1-1.616,2.235,6.7,6.7,0,0,1-2.414,1.426,10.249,10.249,0,0,1-3.39.5,8.655,8.655,0,0,1-3.167-.487,3.72,3.72,0,0,1-1.8-1.409,4.41,4.41,0,0,1-.623-2.241,12.021,12.021,0,0,1,.331-2.976,13,13,0,0,1,1-2.9,7.2,7.2,0,0,1,1.649-2.207,6.939,6.939,0,0,1,2.425-1.392,10.433,10.433,0,0,1,3.359-.481,8.311,8.311,0,0,1,3.084.487,3.793,3.793,0,0,1,1.784,1.4,4.314,4.314,0,0,1,.671,2.2,10.776,10.776,0,0,1-.3,2.891Zm-3.535.011a9.151,9.151,0,0,0,.247-1.839,2.889,2.889,0,0,0-.253-1.3,1.645,1.645,0,0,0-.835-.781,3.738,3.738,0,0,0-1.5-.254,5.1,5.1,0,0,0-1.675.249,3.007,3.007,0,0,0-1.189.758,4.265,4.265,0,0,0-.824,1.3,10.527,10.527,0,0,0-.579,1.862,11.226,11.226,0,0,0-.287,1.9,2.892,2.892,0,0,0,.2,1.347,1.57,1.57,0,0,0,.837.8,4.027,4.027,0,0,0,1.6.266,4.738,4.738,0,0,0,1.712-.272,3.053,3.053,0,0,0,1.182-.815,4.3,4.3,0,0,0,.8-1.347,14.071,14.071,0,0,0,.552-1.885Zm-22.553-6.7h3.456l-.164.73c.453-.193.913-.362,1.371-.521.394-.13.825-.255,1.312-.368a6.258,6.258,0,0,1,1.375-.164,7.293,7.293,0,0,1,2.5.373,3.123,3.123,0,0,1,1.569,1.194,4.191,4.191,0,0,1,.6,2.144,12.514,12.514,0,0,1-.365,3.214,14.524,14.524,0,0,1-1.2,3.5,6.9,6.9,0,0,1-1.751,2.207,6.066,6.066,0,0,1-2.4,1.154,13.2,13.2,0,0,1-3.1.334c-.314,0-.625-.011-.939-.034s-.6-.045-.867-.073-.48-.057-.659-.085-.291-.045-.327-.057l-1.021,4.54-3.721,1.176,4.334-19.267Zm2.731,3.225-1.712,7.61c.039,0,.144.011.319.034s.388.04.632.062.515.045.806.062.558.023.808.023a6.016,6.016,0,0,0,1.768-.232,3.028,3.028,0,0,0,1.252-.758,4.333,4.333,0,0,0,.881-1.358,12.476,12.476,0,0,0,.629-2.054,7.813,7.813,0,0,0,.228-1.924,2.754,2.754,0,0,0-.3-1.262,1.568,1.568,0,0,0-.773-.69,3.029,3.029,0,0,0-1.188-.209,5.859,5.859,0,0,0-1.093.107c-.394.073-.751.152-1.085.243-.4.107-.786.226-1.165.345Zm-4.534-.277.647-2.62c-.666-.113-1.328-.215-1.993-.3-.571-.079-1.182-.153-1.84-.215a17.749,17.749,0,0,0-1.827-.1,10.951,10.951,0,0,0-2.241.232,6.889,6.889,0,0,0-2.018.747,5.254,5.254,0,0,0-1.572,1.324,4.726,4.726,0,0,0-.908,1.958,3.91,3.91,0,0,0-.066,1.743,2.109,2.109,0,0,0,.75,1.16,4.395,4.395,0,0,0,1.583.735,21.693,21.693,0,0,0,2.412.486c.594.091,1.068.176,1.433.261a2.978,2.978,0,0,1,.82.283.63.63,0,0,1,.343.379,1.078,1.078,0,0,1-.006.537,1.544,1.544,0,0,1-.921,1.138,6.161,6.161,0,0,1-2.32.322c-.4,0-.9-.023-1.483-.062l-.334-.024-.7,2.736.429.043c.658.062,1.26.091,1.81.091a13.438,13.438,0,0,0,2.574-.232,6.769,6.769,0,0,0,2.082-.747,4.85,4.85,0,0,0,1.5-1.33,5.3,5.3,0,0,0,.876-2.014,4.589,4.589,0,0,0,.112-1.692,2,2,0,0,0-.643-1.182,3.821,3.821,0,0,0-1.482-.781,16.753,16.753,0,0,0-2.413-.515c-.621-.085-1.12-.17-1.507-.244a4.392,4.392,0,0,1-.906-.266.74.74,0,0,1-.41-.368.828.828,0,0,1-.023-.526,1.456,1.456,0,0,1,.831-1.075,5.155,5.155,0,0,1,2.013-.3c.447,0,.98.023,1.6.062s1.215.09,1.78.142C254.579,221.648,255.254,221.716,255.934,221.8Z" transform="translate(-177.234 -209.909)"/></g></g></svg>