<svg xmlns="http://www.w3.org/2000/svg" width="112.603" height="64.889" viewBox="0 0 112.603 64.889"><defs><style>.a{opacity:0.56;}.b{fill:#fff;}</style></defs><g class="a" transform="translate(-22.6 -6.7)"><path class="b" d="M547.4,87.972h5.179V82.793H547.4Zm0-9.191h5.179V27.3H547.4Z" transform="translate(-417.376 -16.383)"/><path class="b" d="M402.4,117.3h-5.22v18.382a9.232,9.232,0,0,1-18.464,0V117.3H373.5v18.382a14.452,14.452,0,0,0,28.9,0Z" transform="translate(-279.072 -87.961)"/><path class="b" d="M183.6,170.34a17.432,17.432,0,0,0,26.754,14.718l-2.8-4.4a12.216,12.216,0,1,1,5.65-10.317v17.522h5.22V170.32a17.409,17.409,0,1,0-34.819.02" transform="translate(-128.044 -116.273)"/><path class="b" d="M51.5,117.3h-5.22v27.8a9.232,9.232,0,1,1-18.464,0V117.3H22.6v27.8a14.452,14.452,0,1,0,28.9,0V117.3Z" transform="translate(0 -87.961)"/><path class="b" d="M41.678,10.855a5.936,5.936,0,1,0,5.936,5.936,5.94,5.94,0,0,0-5.936-5.936m0,10.071a4.155,4.155,0,1,1,4.155-4.155,4.158,4.158,0,0,1-4.155,4.155m33.713-5.158a4.913,4.913,0,1,0-9.825,0v6.939h1.781V15.768a3.152,3.152,0,0,1,6.3,0v6.939h1.781V15.768ZM64.03,10.855H62.25V22.707H64.03ZM34.452,16.791a5.934,5.934,0,0,0-9.109-5.015l.962,1.494a4.047,4.047,0,0,1,2.231-.635,4.155,4.155,0,1,1-4.155,4.155V6.7H22.6V16.791a5.926,5.926,0,1,0,11.852,0m26.283,0a5.934,5.934,0,0,0-9.109-5.015l.962,1.494a4.047,4.047,0,0,1,2.231-.635,4.155,4.155,0,1,1-4.155,4.155V6.7H48.883V16.791a5.926,5.926,0,1,0,11.852,0m31.585-2.006a3.2,3.2,0,0,1-.737-2.026v-1.9H89.8v1.9a4.856,4.856,0,0,0,1.167,3.173Zm7.328-2.026v-1.9H97.867v1.9a3.154,3.154,0,0,1-3.152,3.152A4.914,4.914,0,0,0,89.8,20.824v1.9h1.781v-1.9a3.152,3.152,0,1,1,6.3,0v1.9h1.781v-1.9a4.925,4.925,0,0,0-2.108-4.033,4.989,4.989,0,0,0,2.088-4.033m-11.2,4.913a6.361,6.361,0,0,0,.061-.88,5.957,5.957,0,1,0-.942,3.193l-1.494-.962a4.154,4.154,0,1,1,.553-3.132h-6.9v1.781Z"/></g></svg>